<?xml version="1.0" encoding="UTF-8"?>
<!DOCTYPE svg PUBLIC "-//W3C//DTD SVG 1.1//EN" "http://www.w3.org/Graphics/SVG/1.1/DTD/svg11.dtd">
<!-- Creator: CorelDRAW -->
<svg xmlns="http://www.w3.org/2000/svg" xml:space="preserve" width="54.2524mm" height="16.4062mm" style="shape-rendering:geometricPrecision; text-rendering:geometricPrecision; image-rendering:optimizeQuality; fill-rule:evenodd; clip-rule:evenodd"
viewBox="0 0 333.408 100.824"
 xmlns:xlink="http://www.w3.org/1999/xlink">
 <defs>
  <style type="text/css">
   <![CDATA[
    .fil0 {fill:white;fill-rule:nonzero}
   ]]>
  </style>
 </defs>
 <g id="Layer_x0020_1">
  <metadata id="CorelCorpID_0Corel-Layer"/>
  <path class="fil0" d="M130.641 24.2765l-112.124 0 15.0909 -24.2765 82.2826 0c2.23573,0 4.52001,0.777405 6.85284,2.35741 2.30886,1.55481 4.0339,3.37756 5.1278,5.46764 1.84672,3.47466 2.76977,8.9423 2.76977,16.4515zm-2.57558 9.69574c-0.364428,2.47909 -1.31206,5.29803 -2.8429,8.48139 -2.13863,4.44688 -5.73559,8.18948 -10.8142,11.178 -7.60627,4.44749 -17.715,6.68322 -30.3274,6.68322l-33.5353 0 -11.2512 40.0717 -33.3166 0 18.2257 -66.1955 103.862 -0.21878z"/>
  <path id="1" class="fil0" d="M233.02 0l-6.9739 24.4222 -94.5306 0 15.5045 -24.4222 86 0zm-8.96689 33.9723l-8.04322 26.6339 -46.852 0 -10.8867 39.7804 -38.2981 0 18.517 -66.4143 85.5631 0z"/>
  <path id="12" class="fil0" d="M333.408 0l-7.1933 24.4222 -87.2887 0c1.79879,-5.97772 5.17635,-11.3968 10.1093,-16.2327 5.56474,-5.46764 11.3243,-8.18948 17.302,-8.18948l67.0707 0zm-20.6562 73.6316l-7.60566 27.1926 -46.2202 0c-16.0385,0 -26.2695,-5.15177 -30.6678,-15.4553 -1.33664,-3.08627 -1.77359,-7.3875 -1.2881,-12.8797 0.0977133,-1.09328 0.316493,-3.0371 0.632371,-5.83207l8.48078 -32.466 36.1595 -0.21878 -10.4492 32.2472c0.315878,1.2881 0.631757,2.57619 0.923053,3.8397 0.8997,1.82275 2.69787,3.01313 5.39513,3.57237l44.6402 0z"/>
 </g>
</svg>
