<?xml version="1.0" encoding="UTF-8"?>
<!DOCTYPE svg PUBLIC "-//W3C//DTD SVG 1.1//EN" "http://www.w3.org/Graphics/SVG/1.1/DTD/svg11.dtd">
<!-- Creator: CorelDRAW -->
<svg xmlns="http://www.w3.org/2000/svg" xml:space="preserve" width="18.2642mm" height="18.2642mm" style="shape-rendering:geometricPrecision; text-rendering:geometricPrecision; image-rendering:optimizeQuality; fill-rule:evenodd; clip-rule:evenodd"
viewBox="0 0 5.34275 5.34275"
 xmlns:xlink="http://www.w3.org/1999/xlink">
 <defs>
  <style type="text/css">
   <![CDATA[
    .str0 {stroke:black;stroke-width:0.0585052}
    .fil0 {fill:black}
    .fil1 {fill:#11110F}
    .fil2 {fill:white}
   ]]>
  </style>
 </defs>
 <g id="Layer_x0020_1">
  <metadata id="CorelCorpID_0Corel-Layer"/>
  <path class="fil0 str0" d="M2.67137 0.0292526c1.45921,0 2.64212,1.18292 2.64212,2.64212 0,1.45921 -1.18292,2.64212 -2.64212,2.64212 -1.45921,0 -2.64212,-1.18292 -2.64212,-2.64212 0,-1.45921 1.18292,-2.64212 2.64212,-2.64212zm0 0.492584c1.18716,0 2.14954,0.962381 2.14954,2.14954 0,1.18716 -0.962381,2.14954 -2.14954,2.14954 -1.18716,0 -2.14954,-0.962381 -2.14954,-2.14954 0,-1.18716 0.962381,-2.14954 2.14954,-2.14954zm-2.92526e-005 0.48413c0.919789,0 1.66544,0.745648 1.66544,1.66541 0,0.91976 -0.745648,1.66541 -1.66544,1.66541 -0.91973,0 -1.66538,-0.745648 -1.66538,-1.66541 0,-0.91976 0.745648,-1.66541 1.66538,-1.66541zm2.92526e-005 0.4669c0.661898,0 1.19851,0.536609 1.19851,1.19851 0,0.661898 -0.536609,1.19851 -1.19851,1.19851 -0.661898,0 -1.19851,-0.536609 -1.19851,-1.19851 0,-0.661898 0.536609,-1.19851 1.19851,-1.19851z"/>
  <g id="_689315864">
   <path id="_689317208" class="fil1" d="M1.99043 2.33301c0.0159134,-0.00324704 0.0580079,-0.0363025 0.143513,-0.0549071 0.0708498,-0.0153869 0.108264,-0.0146263 0.179377,-0.0173468 0.0346936,-0.0635951 0.0723124,-0.130437 0.117917,-0.181132 0.0243967,-0.0271171 0.0436156,-0.0461606 0.0778411,-0.0719613l0.111218 -0.0363317c-0.00181366,0.0116425 -0.0514553,0.03914 -0.0761152,0.0587392 -0.0588269,0.0467456 -0.115314,0.121486 -0.154512,0.189206 -0.0123446,0.0212959 -0.0134854,0.0247184 -0.0234606,0.0474477 0.154512,0.0442884 0.149305,0.037063 0.287465,0.124821 -0.000702062,0.000555799 -0.00187217,0.000321778 -0.00225245,0.00143338 -0.00114085,0.00327629 -0.0253327,0.00944858 -0.0356296,0.0121398 -0.00775193,-0.00877577 -0.233465,-0.0992833 -0.274945,-0.0912388 -0.0374433,0.096007 -0.0669007,0.200907 -0.0703525,0.324206 -0.00169665,0.059412 -0.00231095,0.136142 0.00924382,0.18827l0.0411291 0.155009c0.0028375,0.0040076 0.0229633,0.00552874 0.0268246,0.0062308 0.0987275,0.0182536 0.256223,0.00231095 0.348076,-0.0285798 0.0293403,-0.00985812 0.0269124,-0.00587977 0.0614012,0.025479 -0.0408659,0.0363317 -0.251104,0.0542635 -0.310458,0.0566037 -0.0359222,0.00143338 -0.0674857,-0.00242796 -0.104461,-0.00500219 0.00725464,0.0334942 0.056867,0.108176 0.0768758,0.135235 0.0285798,0.0386719 0.0667251,0.0774023 0.0998098,0.112915 -0.0135732,-0.00181366 -0.0685388,-0.0272634 -0.0787187,-0.0341963 -0.0242211,-0.0165862 -0.0447564,-0.0363902 -0.0597045,-0.0560187 -0.0373263,-0.0489396 -0.0559017,-0.0859148 -0.0852713,-0.145356 -0.017259,-0.0348983 -0.00178441,-0.0157671 -0.0749159,-0.0372093 -0.121983,-0.0357759 -0.131958,-0.0444347 -0.241363,-0.104783 0.0011116,0.0293696 0.0673687,0.139476 0.0842182,0.161942 0.0780459,0.103817 0.157964,0.169928 0.273131,0.223139 0.0227878,0.0105309 0.0637414,0.0238994 0.0936083,0.0308907 0.0423285,0.00991662 0.0666959,0.0114378 0.113529,0.0110867 0.215153,-0.00157964 0.341436,-0.181307 0.378002,-0.367325 0.00889278,-0.0452537 -0.0162937,-0.0272927 -0.0483545,-0.0710545 -0.0249525,-0.03405 -0.013895,-0.0641509 -0.0079567,-0.104344l-0.156297 -0.175545c-0.0160597,0.00102384 -0.0783092,0.0287553 -0.119877,-0.0353664 -0.0563112,-0.0868217 0.0660816,-0.196402 0.143835,-0.125084 0.0135732,0.0124323 0.0250987,0.0282872 0.0293111,0.0559894l-0.0149773 0.0677782 0.155185 0.174843c0.0116133,0.00576276 0.0634196,-0.0265906 0.107767,0.017025 0.0212959,0.0209448 0.0426795,0.0639169 0.0259178,0.10449 -0.0239579,0.0581249 -0.056165,0.042504 -0.0632733,0.0743601 -0.00412461,0.0185461 -0.00786894,0.0389352 -0.0119058,0.0564282 -0.00473892,0.0206523 -0.00953634,0.0354541 -0.0155916,0.0556969 -0.0335527,0.112184 -0.112447,0.213251 -0.210823,0.273073l-0.0455755 0.0284628c0.0856223,-0.00201843 0.186368,-0.059061 0.250431,-0.10762 0.0933157,-0.070762 0.143952,-0.148428 0.19254,-0.250841 0.0326166,-0.0687728 0.0645019,-0.224894 0.053737,-0.300687 -0.00649407,-0.0456633 -0.0703525,-0.0318268 -0.0740383,-0.106304 -0.00181366,-0.036946 0.00362732,-0.0427965 0.0162352,-0.0750914 -0.0108235,-0.0225245 -0.118122,-0.157233 -0.134913,-0.178294 -0.0155039,0.00090683 -0.0752669,0.0331724 -0.125728,-0.0329969 -0.0262688,-0.0344888 -0.0269124,-0.0968845 0.0167325,-0.13503 0.0687143,-0.0600848 0.156092,-0.000234021 0.161855,0.0591487 0.00295451,0.0304519 -0.00637706,0.045751 -0.017142,0.0718443 0.0262981,0.028726 0.0475354,0.059646 0.0728682,0.0910633l0.0724294 0.0966505c0.0539125,-0.00608454 0.0830773,-8.77577e-005 0.110546,0.0356004 0.0322363,0.0419189 0.0165277,0.10528 -0.025011,0.133743 -0.0131637,0.00900979 -0.0145093,0.00377358 -0.0200088,0.0201258 -0.00652333,0.0195115 -0.00424162,0.0475062 -0.0051192,0.0724001 -0.00152113,0.0429135 -0.0102384,0.0974403 -0.0182536,0.139213 -0.0151528,0.0791282 -0.0508702,0.160158 -0.0900687,0.22153 -0.0679537,0.106392 -0.0777826,0.0986982 -0.140383,0.174258 0.0329677,-0.00587977 0.116601,-0.0681293 0.139418,-0.087904 0.130232,-0.112856 0.211262,-0.246687 0.245985,-0.42817 0.0988152,-0.516542 -0.357905,-0.968173 -0.885914,-0.848939 -0.130437,0.0294573 -0.210765,0.0771976 -0.299459,0.150417 -0.0415972,0.0343425 -0.0778411,0.0762615 -0.109639,0.11508 -0.016908,0.0206523 -0.0808834,0.113207 -0.0855053,0.140646z"/>
   <path id="_689318456" class="fil2" d="M2.93003 2.80038c0.0517186,-0.0278777 0.0879333,0.0592365 0.0351323,0.0849202 -0.0443762,0.0216177 -0.0900394,-0.0553166 -0.0351323,-0.0849202zm0.26184 -0.256984c0.0256838,-0.00994588 0.0512213,0.0067866 0.0566622,0.0299839 0.00672809,0.0286675 -0.0122276,0.0509287 -0.0292233,0.0570425 -0.0502559,0.0180781 -0.0861196,-0.0642387 -0.0274389,-0.0870264zm-0.540968 -0.0550826c0.0330554,-0.0265321 0.0990492,0.0474477 0.0354541,0.0774608 -0.0409244,0.0193067 -0.0937253,-0.0307445 -0.0354541,-0.0774608zm-0.386836 0.484832c-0.0795378,-0.00772268 -0.286178,-0.0917361 -0.323709,-0.193418 -0.0100336,-0.0271756 -0.0154454,-0.117859 -0.0157671,-0.154103 -0.000438789,-0.0493199 0.00877577,-0.108059 0.0197162,-0.153342 0.00801521,-0.0332894 0.00459266,-0.0387304 0.0265028,-0.0604358 0.0718151,-0.0711423 0.211496,-0.11467 0.318912,-0.103613 -0.0325581,0.101331 -0.0661108,0.206669 -0.0669007,0.317332 -0.000497294,0.0674272 -0.000702062,0.123475 0.00646482,0.186222 0.00704987,0.0616937 0.0321486,0.131783 0.0347813,0.161357zm0.67199 -0.76709c0.056867,-0.0195992 0.0752669,0.0706742 0.0266198,0.0896884 -0.0523914,0.0205061 -0.0864414,-0.0690946 -0.0266198,-0.0896884zm-0.945619 0.126956c0.00462191,-0.0274389 0.0685973,-0.119994 0.0855053,-0.140646 0.0317976,-0.0388182 0.0680415,-0.0807371 0.109639,-0.11508 0.0886938,-0.0732192 0.169021,-0.120959 0.299459,-0.150417 0.528009,-0.119234 0.98473,0.332397 0.885914,0.848939 -0.0347228,0.181483 -0.115752,0.315314 -0.245985,0.42817 -0.022817,0.0197747 -0.10645,0.0820242 -0.139418,0.087904 0.0626005,-0.0755594 0.0724294,-0.067866 0.140383,-0.174258 0.0391985,-0.0613719 0.0749159,-0.142402 0.0900687,-0.22153 0.00801521,-0.0417727 0.0167325,-0.0962995 0.0182536,-0.139213 0.000877577,-0.0248939 -0.00140412,-0.0528887 0.0051192,-0.0724001 0.00549949,-0.0163522 0.0068451,-0.011116 0.0200088,-0.0201258 0.0415387,-0.0284628 0.0572473,-0.0918239 0.025011,-0.133743 -0.0274682,-0.0356881 -0.056633,-0.0416849 -0.110546,-0.0356004l-0.0724294 -0.0966505c-0.0253327,-0.0314173 -0.0465701,-0.0623373 -0.0728682,-0.0910633 0.0107649,-0.0260933 0.0200965,-0.0413924 0.017142,-0.0718443 -0.00576276,-0.0593827 -0.0931402,-0.119234 -0.161855,-0.0591487 -0.0436449,0.0381454 -0.0430013,0.100541 -0.0167325,0.13503 0.0504607,0.0661693 0.110224,0.0339037 0.125728,0.0329969 0.016791,0.0210619 0.124089,0.15577 0.134913,0.178294 -0.0126079,0.0322948 -0.0180488,0.0381454 -0.0162352,0.0750914 0.00368583,0.0744771 0.0675442,0.0606406 0.0740383,0.106304 0.0107649,0.0757934 -0.0211204,0.231914 -0.053737,0.300687 -0.0485885,0.102413 -0.0992248,0.180079 -0.19254,0.250841 -0.0640632,0.0485593 -0.164809,0.105602 -0.250431,0.10762l0.0455755 -0.0284628c0.0983764,-0.0598215 0.177271,-0.160889 0.210823,-0.273073 0.00605528,-0.0202428 0.0108527,-0.0350446 0.0155916,-0.0556969 0.00403686,-0.017493 0.00778119,-0.0378821 0.0119058,-0.0564282 0.00710838,-0.0318561 0.0393155,-0.0162352 0.0632733,-0.0743601 0.0167617,-0.0405733 -0.00462191,-0.0835454 -0.0259178,-0.10449 -0.0443469,-0.0436156 -0.0961532,-0.0112622 -0.107767,-0.017025l-0.155185 -0.174843c0.0108235,-0.030686 0.0349568,-0.0674565 -0.0143338,-0.123768 -0.0777534,-0.0713178 -0.200146,0.0382624 -0.143835,0.125084 0.0415679,0.0641217 0.103817,0.0363902 0.119877,0.0353664l0.156297 0.175545c-0.00593827,0.040193 -0.0169957,0.070294 0.0079567,0.104344 0.0320608,0.0437619 0.0572473,0.0258008 0.0483545,0.0710545 -0.0365657,0.186017 -0.162849,0.365745 -0.378002,0.367325 -0.0468334,0.000351031 -0.0712008,-0.0011701 -0.113529,-0.0110867 -0.0298669,-0.00699137 -0.0708205,-0.0203598 -0.0936083,-0.0308907 -0.115167,-0.0532104 -0.195085,-0.119321 -0.273131,-0.223139 -0.0168495,-0.022466 -0.0831066,-0.132573 -0.0842182,-0.161942 0.109405,0.0603481 0.11938,0.0690068 0.241363,0.104783 0.0731315,0.0214421 0.0576568,0.00231095 0.0749159,0.0372093 0.0293696,0.0594412 0.047945,0.0964165 0.0852713,0.145356 0.0149481,0.0196285 0.0354834,0.0394325 0.0597045,0.0560187 0.0101799,0.00693286 0.0651455,0.0323826 0.0787187,0.0341963 -0.0330847,-0.0355126 -0.07123,-0.0742431 -0.0998098,-0.112915 -0.0200088,-0.0270586 -0.0696211,-0.10174 -0.0768758,-0.135235 0.0369753,0.00257423 0.0685388,0.00643557 0.104461,0.00500219 0.0593535,-0.00234021 0.269592,-0.020272 0.310458,-0.0566037 -0.0344888,-0.0313588 -0.0320608,-0.0353371 -0.0614012,-0.025479 -0.0918531,0.0308907 -0.249349,0.0468334 -0.348076,0.0285798 -0.00386134,-0.000702062 -0.0239871,-0.0022232 -0.0268246,-0.0062308l-0.0411291 -0.155009c-0.0115548,-0.0521281 -0.0109405,-0.128858 -0.00924382,-0.18827 0.0034518,-0.1233 0.0329092,-0.228199 0.0703525,-0.324206 0.0435571,-0.0130759 0.268685,0.0785432 0.274945,0.0912388 0.0102969,-0.00269124 0.0344888,-0.00886353 0.0356296,-0.0121398 0.000380284,-0.0011116 0.00155039,-0.000877577 0.00225245,-0.00143338l-0.146 -0.0820827c-0.0689483,-0.0264151 -0.108469,-0.0332894 -0.141465,-0.042738 0.00997513,-0.0227293 0.011116,-0.0261518 0.0234606,-0.0474477 0.0391985,-0.0677197 0.0956852,-0.14246 0.154512,-0.189206 0.0246599,-0.0195992 0.0743016,-0.0470967 0.0761152,-0.0587392l-0.111218 0.0363317c-0.0342255,0.0258008 -0.0534445,0.0448442 -0.0778411,0.0719613 -0.0456048,0.0506947 -0.0832236,0.117537 -0.117917,0.181132 -0.071113,0.00272049 -0.108527,0.00195992 -0.179377,0.0173468 -0.0855053,0.0186046 -0.1276,0.0516601 -0.143513,0.0549071zm-0.123036 0.345648c0.00391985,0.0263858 0.00558724,0.0622495 0.00871727,0.090332 0.00836624,0.0754132 0.0395495,0.157467 0.0713178,0.224484 0.0832821,0.175896 0.235366,0.302384 0.412725,0.380401 0.098669,0.0433816 0.208161,0.059529 0.3362,0.0571888 0.11078,-0.00201843 0.235249,-0.0443762 0.313851,-0.0824045 0.0926429,-0.0448442 0.167998,-0.107123 0.22621,-0.170484 0.0940763,-0.102384 0.172151,-0.262717 0.192482,-0.399971 0.0139242,-0.0940178 0.0145678,-0.079333 0.0129881,-0.183911 -0.00301302,-0.200117 -0.116835,-0.41252 -0.252625,-0.539593 -0.0574228,-0.053737 -0.165394,-0.125494 -0.243177,-0.153313 -0.0244844,-0.00877577 -0.0454,-0.0173468 -0.0733655,-0.0265906 -0.0694456,-0.0229925 -0.184935,-0.0397835 -0.260699,-0.0336405 -0.118151,0.00956559 -0.150505,0.0209448 -0.245458,0.0554629 -0.107415,0.0390522 -0.220389,0.12681 -0.29001,0.20272 -0.0599093,0.0652625 -0.121925,0.156238 -0.153722,0.242709 -0.0298961,0.0812637 -0.0256838,0.0734532 -0.0431768,0.154161 -0.00903905,0.0417434 -0.0196577,0.132894 -0.0122568,0.182448z"/>
   <path id="_689317856" class="fil1" d="M2.26406 2.97314c-0.00263273,-0.0295744 -0.0277314,-0.0996635 -0.0347813,-0.161357 -0.00716688,-0.0627468 -0.00696211,-0.118795 -0.00646482,-0.186222 0.00078982,-0.110663 0.0343425,-0.216001 0.0669007,-0.317332 -0.107415,-0.0110575 -0.247097,0.0324704 -0.318912,0.103613 -0.0219102,0.0217054 -0.0184876,0.0271464 -0.0265028,0.0604358 -0.0109405,0.045283 -0.020155,0.104022 -0.0197162,0.153342 0.000321778,0.0362439 0.00573351,0.126927 0.0157671,0.154103 0.0375311,0.101682 0.244171,0.185695 0.323709,0.193418z"/>
   <path id="_689317976" class="fil1" d="M2.93605 2.20605c-0.0598215,0.0205938 -0.0257715,0.110194 0.0266198,0.0896884 0.048647,-0.0190142 0.0302472,-0.109288 -0.0266198,-0.0896884z"/>
   <path id="_689319056" class="fil1" d="M3.19187 2.54339c-0.0586807,0.0227878 -0.022817,0.105105 0.0274389,0.0870264 0.0169957,-0.00611379 0.0359514,-0.028375 0.0292233,-0.0570425 -0.00544098,-0.0231973 -0.0309785,-0.0399298 -0.0566622,-0.0299839z"/>
   <path id="_689319152" class="fil1" d="M2.93003 2.80038c-0.0549071,0.0296036 -0.00924382,0.106538 0.0351323,0.0849202 0.0528009,-0.0256838 0.0165862,-0.112798 -0.0351323,-0.0849202z"/>
   <path id="_689318984" class="fil1" d="M2.64809 2.49062c-0.0569255,0.0370045 -0.00266198,0.0944566 0.0382624,0.0751499 0.065204,-0.0412754 -0.000848325,-0.10607 -0.0382624,-0.0751499z"/>
  </g>
 </g>
</svg>
